<!--?xml version="1.0" standalone="no"?-->

<svg version="1.0" xmlns="http://www.w3.org/2000/svg" width="300.000000pt" height="187.000000pt" viewBox="0 0 300.000000 187.000000" preserveAspectRatio="xMidYMid meet">
<g transform="translate(0.000000,187.000000) scale(0.100000,-0.100000)" fill="#030303" stroke="none">
<path d="M29 1841 c-29 -29 -29 -30 -29 -151 0 -131 12 -173 52 -186 12 -3 77
-6 146 -7 121 0 125 1 151 27 24 24 26 34 29 127 5 123 -2 164 -33 195 -23 23
-30 24 -155 24 l-132 0 -29 -29z" id="node1" class="node"></path>
<path d="M593 1846 l-28 -24 0 -136 c0 -133 0 -136 26 -162 l27 -26 1159 0
c1068 -1 1162 1 1185 16 34 22 38 40 38 179 0 118 0 119 -29 148 l-29 29
-1161 0 -1160 0 -28 -24z" id="node2" class="node"></path>
<path d="M44 1108 c-35 -17 -44 -52 -44 -178 0 -113 1 -120 26 -149 l26 -31
130 0 c71 0 138 5 149 10 36 20 49 63 49 170 0 109 -14 161 -48 179 -26 14
-260 13 -288 -1z" id="node3" class="node"></path>
<path d="M593 1096 l-28 -24 0 -137 0 -137 28 -24 28 -24 1160 0 1161 0 29 29
c29 29 29 30 29 150 0 130 -9 163 -47 180 -17 8 -353 11 -1178 11 l-1154 0
-28 -24z" id="node4" class="node"></path>
<path d="M87 370 c-76 -9 -81 -20 -85 -175 l-4 -135 30 -30 30 -30 121 0 c66
0 131 4 146 10 40 15 55 64 55 179 0 162 -19 185 -159 185 -47 1 -107 -1 -134
-4z" id="node5" class="node"></path>
<path d="M643 372 c-21 -2 -41 -14 -58 -34 -26 -31 -26 -34 -23 -161 3 -127 3
-129 31 -153 l28 -24 1160 0 1161 0 29 29 c29 29 29 30 29 150 0 66 -4 130 -9
143 -20 52 24 50 -1188 52 -620 0 -1142 0 -1160 -2z" id="node6" class="node"></path>
</g>
<g transform="translate(0.000000,187.000000) scale(0.100000,-0.100000)" fill="#FFFFFF" stroke="none">





</g>
</svg>