<!--?xml version="1.0" standalone="no"?-->

<svg version="1.0" xmlns="http://www.w3.org/2000/svg" width="300.000000pt" height="300.000000pt" viewBox="0 0 300.000000 300.000000" preserveAspectRatio="xMidYMid meet">
<g transform="translate(0.000000,300.000000) scale(0.100000,-0.100000)" fill="#282627" stroke="none">
<path d="M1253 2980 c-56 -10 -117 -23 -135 -29 -131 -42 -170 -56 -237 -88
-329 -153 -572 -390 -726 -708 -108 -221 -155 -425 -155 -666 0 -381 152 -753
419 -1032 220 -229 477 -370 798 -437 137 -29 428 -29 575 0 527 104 969 490
1137 995 57 170 71 268 71 480 0 212 -14 304 -71 477 -140 426 -474 773 -894
931 -242 92 -537 120 -782 77z m497 -146 c109 -19 170 -37 300 -91 275 -115
539 -368 676 -646 40 -83 87 -217 108 -312 51 -225 32 -533 -45 -735 -11 -30
-27 -72 -34 -93 -8 -20 -35 -75 -61 -121 -187 -337 -515 -583 -889 -667 -299
-67 -640 -26 -910 109 -317 158 -582 464 -680 782 -9 30 -21 66 -25 80 -46
134 -59 449 -25 605 38 178 100 340 167 442 15 23 28 44 28 47 0 14 100 139
169 209 66 69 221 197 237 197 3 0 19 9 35 21 80 57 272 134 414 166 151 34
359 37 535 7z" id="node1" class="node"></path>
<path d="M900 1870 l0 -60 -287 0 c-159 0 -294 -4 -301 -8 -9 -7 -12 -77 -10
-318 l3 -309 297 -3 297 -2 3 -53 3 -52 560 0 560 0 3 27 c2 19 19 39 57 67
30 23 57 41 61 41 3 0 23 13 43 29 88 69 138 88 281 105 74 10 169 20 210 24
l75 7 3 127 3 126 -68 11 c-37 6 -117 15 -178 21 -174 18 -197 25 -305 95
-132 87 -179 126 -182 153 l-3 27 -562 3 -563 2 0 -60z m1079 -375 l0 -385
-512 3 -512 2 -3 383 -2 382 515 0 514 0 0 -385z m147 248 c187 -126 162 -118
434 -149 80 -9 146 -17 147 -18 4 -3 6 -157 2 -160 -4 -4 -69 -12 -292 -36
-65 -7 -102 -17 -140 -38 -85 -46 -117 -67 -117 -74 0 -5 -5 -8 -11 -8 -5 0
-31 -16 -56 -35 -25 -19 -50 -35 -54 -35 -5 0 -9 137 -9 305 0 168 2 305 6
305 3 0 43 -26 90 -57z m-1408 -80 l3 -63 -61 0 -60 0 0 58 c0 32 3 62 7 66 4
4 30 6 58 4 l50 -3 3 -62z m2 -338 l0 -65 -60 0 -60 0 0 65 0 65 60 0 60 0 0
-65z" id="node2" class="node"></path>
<path d="M1063 1773 c-10 -4 -13 -68 -13 -278 0 -242 2 -274 16 -279 19 -7
792 -6 811 1 10 4 13 62 13 278 0 232 -2 274 -15 279 -17 6 -794 6 -812 -1z
m772 -278 l0 -230 -365 0 -365 0 -3 219 c-2 148 1 223 9 232 8 10 81 13 367
11 l357 -2 0 -230z" id="node3" class="node"></path>
<path d="M1259 1643 c0 -5 -1 -25 -2 -46 l-2 -37 48 0 c35 0 47 4 47 15 0 10
10 15 28 15 29 -1 41 -9 86 -58 l30 -32 -137 0 c-130 0 -137 1 -137 20 0 13
-7 20 -19 20 -20 0 -71 -36 -71 -50 0 -4 18 -18 41 -29 41 -22 41 -22 46 -1 5
19 13 20 184 20 99 0 179 -2 179 -5 0 -3 -14 -21 -32 -40 -37 -42 -79 -46
-115 -13 -19 18 -27 20 -47 10 -13 -6 -27 -21 -31 -33 -15 -46 63 -75 88 -33
5 8 24 14 45 14 32 0 45 8 87 50 57 58 89 64 123 25 34 -39 93 -31 113 17 10
25 9 33 -8 56 -29 39 -67 40 -102 3 -27 -29 -33 -31 -104 -31 l-76 0 -47 54
c-37 43 -55 56 -85 61 -24 4 -39 12 -39 21 0 10 -13 14 -45 14 -25 0 -45 -3
-46 -7z" id="node4" class="node"></path>
</g>
<g transform="translate(0.000000,300.000000) scale(0.100000,-0.100000)" fill="#A49F69" stroke="none">



<path d="M952 1498 l3 -383 512 -2 512 -3 0 385 0 385 -514 0 -515 0 2 -382z
m923 276 c13 -5 15 -47 15 -279 0 -216 -3 -274 -13 -278 -19 -7 -792 -8 -811
-1 -14 5 -16 37 -16 279 0 210 3 274 13 278 18 7 795 7 812 1z" id="node8" class="node"></path>
<path d="M1111 1716 c-8 -9 -11 -84 -9 -232 l3 -219 365 0 365 0 0 230 0 230
-357 2 c-286 2 -359 -1 -367 -11z m239 -80 c0 -9 15 -17 39 -21 30 -5 48 -18
85 -61 l47 -54 76 0 c71 0 77 2 104 31 35 37 73 36 102 -3 49 -66 -50 -136
-105 -73 -34 39 -66 33 -123 -25 -42 -42 -55 -50 -87 -50 -21 0 -40 -6 -45
-14 -25 -42 -103 -13 -88 33 4 12 18 27 31 33 20 10 28 8 47 -10 36 -33 78
-29 115 13 18 19 32 37 32 40 0 3 -80 5 -179 5 -171 0 -179 -1 -184 -20 -5
-21 -5 -21 -46 1 -23 11 -41 25 -41 29 0 14 51 50 71 50 12 0 19 -7 19 -20 0
-19 7 -20 137 -20 l137 0 -30 32 c-45 49 -57 57 -86 58 -18 0 -28 -5 -28 -15
0 -11 -12 -15 -47 -15 l-48 0 2 37 c1 21 2 41 2 46 1 4 21 7 46 7 32 0 45 -4
45 -14z" id="node9" class="node"></path>
<path d="M2030 1495 c0 -168 4 -305 9 -305 4 0 29 16 54 35 25 19 51 35 56 35
6 0 11 3 11 8 0 7 32 28 117 74 38 21 75 31 140 38 223 24 288 32 292 36 4 3
2 157 -2 160 -1 1 -67 9 -147 18 -272 31 -247 23 -434 149 -47 31 -87 57 -90
57 -4 0 -6 -137 -6 -305z" id="node10" class="node"></path>
<path d="M607 1724 c-4 -4 -7 -34 -7 -66 l0 -58 60 0 61 0 -3 63 -3 62 -50 3
c-28 2 -54 0 -58 -4z" id="node11" class="node"></path>
<path d="M600 1325 l0 -65 60 0 60 0 0 65 0 65 -60 0 -60 0 0 -65z" id="node12" class="node"></path>


</g>
</svg>